<?xml version="1.0" encoding="utf-8"?>
<!-- Generator: Adobe Illustrator 12.0.0, SVG Export Plug-In . SVG Version: 6.00 Build 51448)  -->
<!DOCTYPE svg PUBLIC "-//W3C//DTD SVG 1.1//EN" "http://www.w3.org/Graphics/SVG/1.1/DTD/svg11.dtd" [
	<!ENTITY ns_svg "http://www.w3.org/2000/svg">
	<!ENTITY ns_xlink "http://www.w3.org/1999/xlink">
]>
<svg  version="1.1" id="Layer_1" xmlns="&ns_svg;" xmlns:xlink="&ns_xlink;" width="200.333" height="52.582"
	 viewBox="0 0 200.333 52.582" overflow="visible" enable-background="new 0 0 200.333 52.582" xml:space="preserve">
<g>
	<g>
		<path fill="#505050" d="M18.32,13.102v26.674h-3.15v-2.719c-0.816,0.864-1.756,1.532-2.819,2.002
			c-1.063,0.469-2.212,0.705-3.45,0.705c-1.237,0-2.392-0.248-3.468-0.742c-1.075-0.494-2.015-1.174-2.819-2.039
			c-0.804-0.862-1.44-1.877-1.91-3.037C0.234,32.783,0,31.548,0,30.238c0-1.332,0.234-2.582,0.704-3.742
			c0.47-1.161,1.106-2.174,1.91-3.039c0.803-0.863,1.744-1.551,2.819-2.057c1.076-0.508,2.231-0.76,3.467-0.76
			c1.236,0,2.386,0.246,3.45,0.741c1.064,0.494,2.003,1.175,2.819,2.039V13.102H18.32L18.32,13.102z M9.159,36.686
			c0.816,0,1.589-0.166,2.318-0.5s1.366-0.791,1.91-1.369c0.544-0.582,0.978-1.267,1.299-2.059c0.321-0.789,0.482-1.63,0.482-2.52
			c0-0.889-0.161-1.727-0.482-2.518s-0.755-1.482-1.299-2.074c-0.544-0.594-1.181-1.063-1.91-1.408
			c-0.729-0.346-1.502-0.52-2.318-0.52c-0.816,0-1.589,0.174-2.319,0.52c-0.729,0.346-1.366,0.814-1.911,1.408
			c-0.545,0.592-0.971,1.283-1.28,2.074s-0.463,1.629-0.463,2.518c0,0.891,0.154,1.73,0.463,2.52
			c0.309,0.792,0.736,1.477,1.28,2.059c0.544,0.58,1.18,1.037,1.911,1.369C7.571,36.52,8.343,36.686,9.159,36.686z"/>
		<path fill="#505050" d="M25.062,31.039c0.099,0.793,0.315,1.535,0.648,2.229c0.334,0.692,0.753,1.287,1.259,1.782
			c0.507,0.494,1.087,0.894,1.742,1.188c0.654,0.297,1.353,0.445,2.094,0.445c1.136,0,2.167-0.271,3.095-0.815
			c0.926-0.544,1.673-1.272,2.242-2.187l2.595,1.668c-0.84,1.334-1.952,2.402-3.336,3.207c-1.383,0.803-2.916,1.205-4.595,1.205
			c-1.162,0-2.255-0.225-3.281-0.668c-1.026-0.445-1.933-1.057-2.723-1.834c-0.791-0.777-1.439-1.699-1.945-2.761
			c-0.507-1.063-0.809-2.212-0.908-3.446c0-0.123-0.006-0.261-0.018-0.408c-0.013-0.147-0.019-0.297-0.019-0.443
			c0-0.791,0.086-1.531,0.259-2.225c0.222-1.037,0.605-2.006,1.149-2.908c0.544-0.901,1.192-1.68,1.945-2.334
			c0.753-0.655,1.605-1.168,2.558-1.539c0.95-0.369,1.945-0.555,2.983-0.555c1.037,0,2.031,0.186,2.982,0.555
			c0.951,0.371,1.804,0.882,2.557,1.535c0.753,0.654,1.402,1.431,1.945,2.332c0.543,0.899,0.927,1.869,1.148,2.904
			c0.173,0.691,0.259,1.432,0.259,2.221c0,0.147,0,0.297,0,0.443s-0.013,0.284-0.036,0.406H25.062V31.039z M36.252,27.961
			c-0.42-1.254-1.117-2.273-2.094-3.063c-0.976-0.787-2.093-1.18-3.353-1.18c-1.26,0-2.378,0.395-3.354,1.18
			c-0.975,0.787-1.673,1.809-2.093,3.063H36.252z"/>
		<path fill="#505050" d="M56.488,34.273c0,1.574-0.689,2.904-2.066,3.983c-1.377,1.082-3.111,1.623-5.201,1.623
			c-1.821,0-3.419-0.474-4.797-1.419c-1.377-0.947-2.36-2.195-2.95-3.745l3.024-1.292c0.443,1.084,1.089,1.926,1.937,2.528
			c0.849,0.603,1.777,0.901,2.786,0.901c1.081,0,1.985-0.231,2.711-0.699c0.726-0.467,1.089-1.02,1.089-1.66
			c0-1.155-0.885-2.004-2.657-2.547l-3.097-0.772c-3.518-0.885-5.275-2.581-5.275-5.09c0-1.647,0.669-2.972,2.01-3.967
			c1.34-0.996,3.056-1.494,5.146-1.494c1.599,0,3.044,0.383,4.334,1.146c1.292,0.762,2.196,1.783,2.712,3.061l-3.025,1.256
			c-0.344-0.764-0.904-1.359-1.679-1.79c-0.775-0.43-1.642-0.646-2.601-0.646c-0.886,0-1.679,0.222-2.38,0.662
			c-0.702,0.443-1.052,0.983-1.052,1.623c0,1.035,0.971,1.772,2.915,2.215l2.729,0.701C54.692,29.736,56.488,31.545,56.488,34.273z"
			/>
		<path fill="#505050" d="M59.791,39.799h3.15V21.3h-3.15V39.799z M61.375,18.24c1.146,0,2.076-0.93,2.076-2.076
			s-0.93-2.076-2.076-2.076s-2.076,0.932-2.076,2.076C59.298,17.313,60.228,18.24,61.375,18.24z"/>
		<path fill="#505050" d="M84.354,20.592v17.571c0,1.532-0.216,2.929-0.648,4.188c-0.433,1.26-1.044,2.336-1.835,3.226
			s-1.729,1.581-2.816,2.075c-1.087,0.494-2.297,0.742-3.631,0.742c-1.408,0-2.619-0.279-3.631-0.836
			c-1.013-0.556-1.847-1.174-2.501-1.853c-0.654-0.681-1.143-1.317-1.463-1.909c-0.321-0.593-0.494-0.914-0.52-0.965l2.817-1.262
			c0.024,0.052,0.141,0.268,0.352,0.65c0.209,0.385,0.531,0.809,0.963,1.279c0.433,0.471,0.983,0.889,1.65,1.26
			c0.667,0.37,1.445,0.557,2.335,0.557c1.062,0,1.964-0.211,2.706-0.631c0.741-0.42,1.339-0.969,1.798-1.647
			c0.457-0.681,0.783-1.444,0.982-2.298c0.197-0.852,0.295-1.709,0.295-2.574v-1.148c-0.815,0.865-1.755,1.539-2.818,2.021
			c-1.063,0.48-2.213,0.725-3.449,0.725s-2.393-0.248-3.468-0.742c-1.075-0.494-2.016-1.176-2.819-2.039
			c-0.803-0.867-1.441-1.881-1.911-3.043c-0.469-1.162-0.704-2.412-0.704-3.748c0-1.334,0.235-2.582,0.704-3.746
			c0.47-1.16,1.108-2.176,1.911-3.041c0.803-0.865,1.744-1.545,2.819-2.039c1.075-0.495,2.232-0.742,3.468-0.742
			s2.386,0.242,3.449,0.725c1.064,0.484,2.002,1.159,2.818,2.023v-2.777h3.147V20.592z M75.194,36.686
			c0.816,0,1.589-0.166,2.318-0.5s1.367-0.799,1.911-1.393c0.545-0.594,0.977-1.286,1.298-2.077
			c0.321-0.793,0.481-1.633,0.481-2.522c0-0.891-0.161-1.73-0.481-2.521c-0.321-0.792-0.754-1.484-1.298-2.078
			c-0.544-0.593-1.181-1.057-1.911-1.392c-0.729-0.334-1.502-0.501-2.318-0.501s-1.588,0.167-2.318,0.501
			c-0.73,0.335-1.368,0.798-1.911,1.392c-0.544,0.594-0.971,1.285-1.28,2.078c-0.309,0.792-0.464,1.633-0.464,2.521
			c0,0.892,0.155,1.73,0.464,2.522c0.309,0.791,0.736,1.483,1.28,2.077s1.181,1.059,1.911,1.393
			C73.605,36.52,74.378,36.686,75.194,36.686z"/>
		<path fill="#505050" d="M104.596,26.63c0.047,0.272,0.084,0.515,0.109,0.724c0.023,0.211,0.035,0.401,0.035,0.574v0.52v11.328
			h-3.15v-11.18c0-0.395-0.043-0.877-0.129-1.445s-0.277-1.112-0.574-1.631c-0.297-0.52-0.742-0.965-1.335-1.336
			c-0.592-0.369-1.385-0.557-2.371-0.557c-1.184,0-2.129,0.18-2.833,0.539c-0.704,0.357-1.247,0.792-1.63,1.297
			c-0.382,0.508-0.635,1.014-0.758,1.521c-0.123,0.507-0.198,0.908-0.223,1.205v11.586h-3.15V20.641h3.15v2.25
			c0.025,0,0.155-0.123,0.389-0.369c0.234-0.248,0.581-0.508,1.038-0.779s1.024-0.526,1.705-0.764
			c0.68-0.236,1.463-0.354,2.354-0.354c1.357,0,2.488,0.203,3.392,0.611c0.9,0.408,1.631,0.914,2.186,1.521
			c0.557,0.604,0.969,1.261,1.24,1.966C104.311,25.425,104.496,26.061,104.596,26.63z"/>
		<path fill="#505050" d="M124.557,20.641c1.234,0,2.391,0.254,3.465,0.76c1.074,0.508,2.013,1.187,2.814,2.039
			c0.803,0.853,1.439,1.858,1.909,3.021c0.47,1.16,0.702,2.409,0.702,3.742c0,1.31-0.232,2.546-0.702,3.707
			c-0.47,1.159-1.106,2.173-1.909,3.038c-0.802,0.863-1.74,1.549-2.814,2.056s-2.229,0.761-3.465,0.761
			c-1.234,0-2.384-0.242-3.445-0.724c-1.063-0.481-1.988-1.153-2.777-2.021v2.756h-3.188V13.102h3.188l-0.001,10.285
			c0.792-0.843,1.716-1.51,2.78-2.004C122.173,20.889,123.322,20.641,124.557,20.641z M124.298,36.686
			c0.813,0,1.587-0.166,2.313-0.5c0.729-0.334,1.363-0.797,1.908-1.39c0.541-0.594,0.976-1.284,1.295-2.075
			c0.322-0.789,0.481-1.63,0.481-2.519c0-0.89-0.159-1.729-0.481-2.521c-0.319-0.789-0.754-1.476-1.295-2.057
			c-0.545-0.581-1.181-1.043-1.908-1.391c-0.728-0.346-1.5-0.519-2.313-0.519c-0.815,0-1.587,0.173-2.315,0.519
			c-0.729,0.347-1.364,0.81-1.906,1.391c-0.545,0.581-0.971,1.268-1.279,2.057c-0.309,0.791-0.463,1.631-0.463,2.521
			s0.154,1.729,0.463,2.519c0.309,0.793,0.734,1.481,1.279,2.075c0.542,0.593,1.179,1.056,1.906,1.39S123.482,36.686,124.298,36.686
			z"/>
		<path fill="#505050" d="M152.441,20.616l-11.228,26.021h-3.509l3.843-8.564l-7.522-17.456h3.334l5.856,13.565l5.854-13.565
			H152.441L152.441,20.616z"/>
	</g>
	<g>
		<polygon fill="#F68C23" points="174.587,20.189 166.854,20.189 178.091,44.288 181.958,35.995 		"/>
		<polygon fill="#F68C23" points="189.329,20.189 181.958,35.995 185.827,44.288 197.062,20.189 		"/>
		<polygon fill="#E55525" points="178.092,44.288 181.959,52.582 185.825,44.288 181.959,35.995 		"/>
		<polygon fill="#F68C23" points="189.329,20.189 192.597,13.18 171.317,13.18 174.587,20.189 		"/>
		<polygon fill="#E55525" points="171.317,13.18 163.584,13.18 164.851,15.898 166.854,20.189 174.587,20.189 		"/>
		<polygon fill="#E55525" points="197.062,20.189 199.065,15.896 200.333,13.18 192.597,13.18 189.33,20.189 		"/>
		<polygon fill="#8DC54B" points="191.591,3.506 185.521,0.001 181.958,6.169 186.005,13.18 		"/>
		<polygon fill="#8DC54B" points="178.396,0 172.325,3.506 177.91,13.18 181.958,6.169 		"/>
		<polygon fill="#519A44" points="181.958,6.169 177.912,13.18 181.958,20.188 186.005,13.18 		"/>
	</g>
</g>
</svg>
