<svg xmlns="http://www.w3.org/2000/svg" xmlns:xlink="http://www.w3.org/1999/xlink" version="1.1" x="0px" y="0px" width="265.924" height="62.19" viewBox="0 0 265.924 62.19" enable-background="new 0 0 265.924 62.19" xml:space="preserve">
  <g>
    <g>
      <g>
        <polygon fill="#f68c22" points="13.013,23.877 3.865,23.877 17.156,52.38 21.73,42.571"/>
        <polygon fill="#f68c22" points="30.448,23.877 21.73,42.571 26.305,52.38 39.596,23.877"/>
        <polygon fill="#e75224" points="17.157,52.38 21.731,62.19 26.304,52.38 21.731,42.571"/>
        <polygon fill="#f68c22" points="30.448,23.877 34.313,15.586 9.147,15.586 13.012,23.877"/>
        <polygon fill="#e75224" points="9.147,15.587 0,15.587 1.497,18.802 3.865,23.878 13.013,23.878"/>
        <polygon fill="#e75224" points="39.596,23.877 41.964,18.801 43.464,15.586 34.313,15.586 30.449,23.877"/>
      </g>
      <g>
        <polygon fill="#8dc54b" points="33.123,4.145 25.943,0 21.73,7.295 26.517,15.586"/>
        <polygon fill="#8dc54b" points="17.518,0 10.338,4.145 16.943,15.586 21.729,7.295"/>
        <polygon fill="#4f9a44" points="21.73,7.295 16.944,15.586 21.73,23.877 26.517,15.586"/>
      </g>
    </g>
    <g>
      <path fill="#505050" d="M81.431,16.063v31.241h-3.683V44.11c-0.955,1.011-2.054,1.791-3.298,2.341
          c-1.244,0.548-2.589,0.822-4.036,0.822c-1.447,0-2.799-0.289-4.058-0.868S64,45.03,63.059,44.019
          c-0.94-1.014-1.685-2.2-2.235-3.561C60.274,39.098,60,37.651,60,36.116c0-1.563,0.274-3.023,0.824-4.385
          c0.55-1.359,1.295-2.545,2.235-3.559c0.941-1.013,2.039-1.816,3.298-2.41c1.259-0.592,2.611-0.89,4.058-0.89
          c1.446,0,2.792,0.289,4.036,0.867c1.244,0.577,2.343,1.373,3.298,2.384V16.063H81.431z M70.715,43.677
          c0.955,0,1.859-0.195,2.713-0.587c0.853-0.391,1.599-0.927,2.236-1.607c0.637-0.68,1.143-1.483,1.519-2.411
          c0.376-0.927,0.565-1.912,0.565-2.955c0-1.042-0.188-2.027-0.565-2.953c-0.376-0.928-0.882-1.738-1.519-2.435
          c-0.637-0.694-1.383-1.245-2.236-1.65c-0.854-0.405-1.758-0.608-2.713-0.608c-0.956,0-1.86,0.203-2.714,0.608
          s-1.599,0.956-2.236,1.65c-0.637,0.696-1.136,1.507-1.497,2.435c-0.362,0.926-0.542,1.911-0.542,2.953
          c0,1.043,0.18,2.028,0.542,2.955c0.361,0.928,0.86,1.731,1.497,2.411c0.637,0.681,1.382,1.217,2.236,1.607
          C68.855,43.481,69.76,43.677,70.715,43.677z"/>
      <path fill="#505050" d="M89.041,37.064c0.116,0.929,0.369,1.798,0.761,2.609c0.39,0.813,0.882,1.508,1.476,2.088
          c0.593,0.581,1.273,1.045,2.041,1.393c0.767,0.349,1.585,0.522,2.454,0.522c1.331,0,2.54-0.318,3.625-0.955
          c1.086-0.637,1.961-1.491,2.628-2.563l3.04,1.954c-0.984,1.563-2.287,2.813-3.909,3.752c-1.621,0.938-3.416,1.408-5.384,1.408
          c-1.361,0-2.641-0.26-3.843-0.781c-1.201-0.521-2.265-1.236-3.191-2.149c-0.927-0.911-1.686-1.989-2.28-3.233
          c-0.594-1.245-0.948-2.59-1.063-4.037c0-0.146-0.008-0.305-0.022-0.479c-0.014-0.173-0.021-0.347-0.021-0.521
          c0-0.926,0.102-1.795,0.303-2.604c0.261-1.216,0.709-2.351,1.346-3.407s1.397-1.969,2.28-2.735
          c0.883-0.767,1.881-1.368,2.996-1.802c1.115-0.435,2.28-0.651,3.496-0.651c1.215,0,2.381,0.217,3.495,0.651
          c1.115,0.434,2.113,1.034,2.996,1.8c0.883,0.768,1.643,1.678,2.28,2.732c0.637,1.058,1.085,2.192,1.346,3.406
          c0.203,0.811,0.304,1.678,0.304,2.604c0,0.174,0,0.348,0,0.521c0,0.173-0.014,0.332-0.043,0.477H89.041z M102.155,33.467
          c-0.492-1.477-1.31-2.679-2.454-3.606c-1.144-0.926-2.453-1.391-3.929-1.391c-1.477,0-2.787,0.465-3.93,1.391
          c-1.144,0.928-1.961,2.13-2.454,3.606H102.155z"/>
      <path fill="#505050" d="M128.642,25.648l-8.988,20.85h-3.604l-8.988-20.85h3.952l6.861,15.898l6.861-15.898H128.642z"/>
      <path fill="#505050" d="M133.202,37.064c0.116,0.929,0.369,1.798,0.76,2.609c0.391,0.813,0.883,1.508,1.477,2.088
          c0.593,0.581,1.273,1.045,2.041,1.393c0.767,0.349,1.584,0.522,2.453,0.522c1.331,0,2.54-0.318,3.626-0.955
          c1.085-0.637,1.961-1.491,2.627-2.563l3.04,1.954c-0.984,1.563-2.287,2.813-3.908,3.752c-1.622,0.938-3.417,1.408-5.385,1.408
          c-1.36,0-2.642-0.26-3.843-0.781c-1.202-0.521-2.265-1.236-3.191-2.149c-0.927-0.911-1.687-1.989-2.28-3.233
          c-0.594-1.245-0.948-2.59-1.063-4.037c0-0.146-0.007-0.305-0.021-0.479c-0.015-0.173-0.021-0.347-0.021-0.521
          c0-0.926,0.101-1.795,0.304-2.604c0.26-1.216,0.708-2.351,1.345-3.407s1.397-1.969,2.281-2.735
          c0.883-0.767,1.881-1.368,2.996-1.802c1.115-0.435,2.28-0.651,3.496-0.651c1.215,0,2.381,0.217,3.496,0.651
          c1.114,0.434,2.113,1.034,2.996,1.8c0.882,0.768,1.643,1.678,2.28,2.732c0.637,1.058,1.085,2.192,1.346,3.406
          c0.202,0.811,0.304,1.678,0.304,2.604c0,0.174,0,0.348,0,0.521c0,0.173-0.014,0.332-0.044,0.477H133.202z M146.315,33.467
          c-0.493-1.477-1.31-2.679-2.454-3.606c-1.143-0.926-2.453-1.391-3.929-1.391c-1.477,0-2.787,0.465-3.93,1.391
          c-1.144,0.928-1.961,2.13-2.454,3.606H146.315z"/>
      <path fill="#505050" d="M154.019,47.302V16.021h3.683v31.281H154.019z"/>
      <path fill="#505050" d="M172.422,47.273c-1.563,0-3.024-0.289-4.384-0.868s-2.547-1.375-3.56-2.387
          c-1.014-1.014-1.816-2.2-2.41-3.561c-0.593-1.36-0.89-2.822-0.89-4.385c0-1.533,0.296-2.98,0.89-4.342
          c0.594-1.359,1.396-2.545,2.41-3.559c1.013-1.013,2.199-1.816,3.56-2.41c1.36-0.592,2.821-0.89,4.384-0.89
          c1.534,0,2.98,0.298,4.342,0.89c1.359,0.594,2.546,1.397,3.559,2.41c1.013,1.014,1.816,2.199,2.41,3.559
          c0.593,1.361,0.89,2.809,0.89,4.342c0,1.563-0.297,3.024-0.89,4.385c-0.594,1.36-1.396,2.547-2.41,3.561
          c-1.013,1.012-2.2,1.808-3.559,2.387C175.402,46.984,173.956,47.273,172.422,47.273z M172.422,28.47
          c-1.043,0-2.028,0.195-2.955,0.587c-0.927,0.391-1.723,0.935-2.39,1.629c-0.667,0.696-1.195,1.507-1.586,2.435
          c-0.392,0.926-0.587,1.911-0.587,2.953c0,1.043,0.195,2.028,0.587,2.955c0.391,0.928,0.919,1.73,1.586,2.411
          s1.463,1.217,2.39,1.607c0.927,0.392,1.912,0.587,2.955,0.587s2.021-0.195,2.934-0.587c0.912-0.391,1.708-0.927,2.389-1.607
          c0.681-0.681,1.217-1.483,1.607-2.411c0.392-0.927,0.587-1.912,0.587-2.955c0-1.042-0.195-2.027-0.587-2.953
          c-0.39-0.928-0.927-1.738-1.607-2.435c-0.681-0.694-1.477-1.238-2.389-1.629C174.443,28.665,173.465,28.47,172.422,28.47z"/>
      <path fill="#505050" d="M197.173,24.873c1.419,0,2.765,0.289,4.038,0.868c1.275,0.579,2.382,1.374,3.322,2.388
          c0.941,1.013,1.688,2.2,2.238,3.56c0.549,1.361,0.824,2.822,0.824,4.385s-0.275,3.024-0.826,4.385s-1.296,2.547-2.237,3.561
          c-0.94,1.012-2.049,1.808-3.323,2.387c-1.273,0.579-2.621,0.868-4.04,0.868c-1.448,0-2.796-0.281-4.042-0.846
          c-1.245-0.563-2.344-1.35-3.3-2.361v12.856h-3.683v-32.22h3.683l0.008,3.376c0.954-1.011,2.054-1.798,3.3-2.36
          C194.379,25.154,195.726,24.873,197.173,24.873z M196.87,43.677c0.956,0,1.862-0.195,2.716-0.587
          c0.855-0.391,1.603-0.934,2.24-1.629c0.637-0.695,1.139-1.507,1.5-2.433c0.362-0.928,0.544-1.912,0.544-2.955
          c0-1.042-0.182-2.027-0.544-2.953c-0.361-0.928-0.863-1.738-1.5-2.435c-0.638-0.694-1.385-1.238-2.24-1.629
          c-0.854-0.392-1.76-0.587-2.716-0.587c-0.957,0-1.863,0.195-2.718,0.587c-0.855,0.391-1.602,0.935-2.239,1.629
          c-0.638,0.696-1.146,1.507-1.523,2.435c-0.377,0.926-0.564,1.911-0.564,2.953c0,1.043,0.187,2.027,0.564,2.955
          c0.377,0.926,0.885,1.737,1.523,2.433c0.637,0.695,1.383,1.238,2.239,1.629C195.007,43.481,195.913,43.677,196.87,43.677z"/>
      <path fill="#505050" d="M214.15,37.064c0.116,0.929,0.369,1.798,0.762,2.609c0.39,0.813,0.883,1.508,1.477,2.088
          c0.592,0.581,1.273,1.045,2.041,1.393c0.766,0.349,1.584,0.522,2.452,0.522c1.331,0,2.54-0.318,3.625-0.955
          c1.087-0.637,1.962-1.491,2.628-2.563l3.039,1.954c-0.983,1.563-2.287,2.813-3.907,3.752c-1.622,0.938-3.417,1.408-5.385,1.408
          c-1.36,0-2.642-0.26-3.843-0.781c-1.201-0.521-2.265-1.236-3.191-2.149c-0.928-0.911-1.687-1.989-2.28-3.233
          c-0.593-1.245-0.947-2.59-1.063-4.037c0-0.146-0.008-0.305-0.021-0.479c-0.015-0.173-0.021-0.347-0.021-0.521
          c0-0.926,0.102-1.795,0.303-2.604c0.262-1.216,0.709-2.351,1.346-3.407c0.638-1.057,1.398-1.969,2.281-2.735
          s1.881-1.368,2.995-1.802c1.114-0.435,2.28-0.651,3.496-0.651s2.382,0.217,3.496,0.651c1.114,0.434,2.112,1.034,2.995,1.8
          c0.883,0.768,1.644,1.678,2.28,2.732c0.637,1.058,1.085,2.192,1.347,3.406c0.201,0.811,0.303,1.678,0.303,2.604
          c0,0.174,0,0.348,0,0.521c0,0.173-0.014,0.332-0.043,0.477H214.15z M227.266,33.467c-0.493-1.477-1.311-2.679-2.454-3.606
          c-1.144-0.926-2.453-1.391-3.93-1.391s-2.786,0.465-3.93,1.391c-1.144,0.928-1.962,2.13-2.454,3.606H227.266z"/>
      <path fill="#505050" d="M245.314,24.83c0.927,0,1.766,0.087,2.52,0.26l-0.521,3.555c-0.521-0.203-1.202-0.304-2.042-0.304
          c-1.39,0-2.495,0.21-3.321,0.63c-0.824,0.42-1.461,0.926-1.91,1.52s-0.746,1.188-0.891,1.781s-0.232,1.064-0.26,1.412v13.679
          h-3.684V24.703h3.684v2.813c0.027-0.028,0.18-0.181,0.455-0.455c0.275-0.276,0.673-0.579,1.193-0.913
          c0.521-0.332,1.181-0.635,1.977-0.908C243.311,24.967,244.243,24.83,245.314,24.83z"/>
      <path fill="#505050" d="M265.924,40.742c0,1.861-0.814,3.433-2.443,4.711c-1.63,1.28-3.68,1.92-6.152,1.92
          c-2.152,0-4.044-0.56-5.673-1.679c-1.629-1.12-2.792-2.596-3.489-4.429l3.577-1.528c0.523,1.282,1.286,2.278,2.291,2.99
          c1.003,0.713,2.102,1.068,3.294,1.068c1.279,0,2.35-0.275,3.207-0.829c0.857-0.552,1.287-1.206,1.287-1.963
          c0-1.367-1.047-2.37-3.141-3.011l-3.666-0.916c-4.16-1.047-6.24-3.054-6.24-6.021c0-1.949,0.793-3.512,2.378-4.691
          c1.586-1.178,3.614-1.766,6.087-1.766c1.891,0,3.6,0.451,5.127,1.353c1.527,0.902,2.597,2.108,3.208,3.62l-3.579,1.484
          c-0.407-0.901-1.068-1.607-1.984-2.116c-0.918-0.509-1.941-0.763-3.076-0.763c-1.048,0-1.986,0.261-2.814,0.784
          c-0.83,0.524-1.243,1.163-1.243,1.92c0,1.223,1.147,2.095,3.446,2.618l3.229,0.829C263.801,35.375,265.924,37.513,265.924,40.742
          z"/>
    </g>
  </g>
</svg>
