<svg xmlns="http://www.w3.org/2000/svg" xmlns:xlink="http://www.w3.org/1999/xlink" version="1.1" x="0px" y="0px" width="200" height="40" viewBox="0 0 200 40" enable-background="new 0 0 200 40" xml:space="preserve">
  <g>
    <g>
      <polygon fill="#F78C22" points="7.342,15.929 2.181,15.929 9.68,32.01 12.261,26.476"/>
      <polygon fill="#F78C22" points="17.179,15.929 12.261,26.476 14.841,32.01 22.34,15.929"/>
      <polygon fill="#E75224" points="9.68,32.01 12.261,37.543 14.841,32.01 12.261,26.476"/>
      <polygon fill="#F78C22" points="17.179,15.929 19.361,11.25 5.162,11.25 7.342,15.929"/>
      <polygon fill="#E75224" points="5.161,11.25 0,11.25 0.845,13.064 2.181,15.929 7.342,15.929"/>
      <polygon fill="#E75224" points="22.34,15.929 23.677,13.064 24.522,11.25 19.36,11.25 17.179,15.929"/>
      <polygon fill="#8DC54C" points="18.688,4.795 14.638,2.457 12.261,6.572 14.962,11.25"/>
      <polygon fill="#8DC54C" points="9.884,2.457 5.833,4.795 9.56,11.25 12.261,6.572"/>
      <polygon fill="#4F9A44" points="12.261,6.572 9.56,11.25 12.261,15.929 14.962,11.25"/>
    </g>
    <g>
      <g>
        <g>
          <rect x="37.276" y="8.478" fill="#F78C22" width="4.644" height="5.958"/>
          <path fill="#F78C22" d="M46.27,32.083l-0.372,0.174c-0.421,0.2-0.959,0.3-1.598,0.3c-1.022,0-2.382-0.309-2.382-2.969 l0.001-10.505h-4.644l-0.001,10.798c0,2.197,0.611,3.928,1.814,5.146c1.204,1.221,2.957,1.836,5.21,1.836 c1.279,0,2.376-0.193,3.264-0.577l0.348-0.15L46.27,32.083z"/>
          <polygon fill="#E75224" points="37.275,19.083 41.919,19.083 41.921,19.083 41.919,14.436 37.275,14.436"/>
          <rect x="32.628" y="14.436" fill="#F78C22" width="4.646" height="4.647"/>
          <rect x="41.921" y="14.436" fill="#F78C22" width="4.647" height="4.647"/>
        </g>
        <g>
          <path fill="#F78C22" d="M60.181,19.113c3.604,0,6.536,2.933,6.536,6.535c0,3.605-2.932,6.537-6.536,6.537 s-6.535-2.932-6.535-6.537C53.646,22.046,56.578,19.113,60.181,19.113 M60.181,14.436c-6.193,0-11.215,5.021-11.215,11.213 c0,6.194,5.021,11.214,11.215,11.214c6.192,0,11.213-5.02,11.213-11.214C71.395,19.457,66.373,14.436,60.181,14.436"/>
        </g>
        <g>
          <polygon fill="#F78C22" points="82.109,25.738 89.928,17.919 86.619,14.611 78.801,22.429 78.801,22.429"/>
          <polygon fill="#F78C22" points="78.801,29.045 78.801,29.045 86.619,36.862 89.928,33.555 82.109,25.735"/>
          <polygon fill="#E75224" points="78.801,29.045 82.109,25.735 78.801,22.429"/>
          <polygon fill="#F78C22" points="78.801,22.429 78.801,4.118 74.123,4.118 74.123,27.107"/>
          <polygon fill="#F78C22" points="74.123,33.724 74.123,36.862 78.801,36.862 78.801,29.045 78.801,29.045"/>
          <polygon fill="#E75224" points="75.493,25.738 74.123,27.107 74.123,33.724 78.801,29.045"/>
          <polygon fill="#B62026" points="75.493,25.738 78.801,29.045 78.801,22.429"/>
        </g>
        <g>
          <polygon fill="#F78C22" points="93.824,14.436 93.824,36.862 98.455,36.862 98.502,36.862 98.502,14.436"/>
          <polygon fill="#E75224" points="98.502,9.521 93.824,12.222 93.824,6.82"/>
        </g>
        <g>
          <polygon fill="#F78C22" points="102.401,14.436 102.401,36.862 107.032,36.862 107.079,36.862 107.079,14.436"/>
          <polygon fill="#E75224" points="107.079,9.521 102.401,12.222 102.401,6.82"/>
        </g>
      </g>
      <g>
        <g>
          <path fill="#8DC54C" d="M121.801,32.186c-3.604,0-6.536-2.932-6.536-6.537c0-3.603,2.932-6.535,6.536-6.535 c3.603,0,6.537,2.933,6.537,6.535v-9.107c-1.841-1.321-4.098-2.105-6.537-2.105c-6.193,0-11.213,5.021-11.213,11.213 c0,6.194,5.02,11.214,11.213,11.214c2.439,0,4.696-0.781,6.537-2.104v-9.11C128.338,29.254,125.403,32.186,121.801,32.186"/>
          <path fill="#8DC54C" d="M128.338,4.118v12.423c2.831,2.035,4.678,5.354,4.678,9.107V4.118H128.338z"/>
          <path fill="#8DC54C" d="M128.338,34.759v2.104h4.63h0.048V25.648C133.016,29.403,131.169,32.724,128.338,34.759"/>
          <path fill="#4F9A44" d="M128.338,16.541v9.107v9.11c2.831-2.035,4.678-5.355,4.678-9.11 C133.016,21.895,131.169,18.575,128.338,16.541"/>
        </g>
        <g>
          <path fill="#8DC54C" d="M146.957,32.186c-2.938,0-5.431-1.951-6.25-4.627h-4.798c0.907,5.284,5.508,9.304,11.048,9.304 c3.372,0,6.394-1.489,8.45-3.844l-3.676-2.919C150.536,31.378,148.841,32.186,146.957,32.186"/>
          <path fill="#8DC54C" d="M146.957,19.113c2.912,0,5.383,1.913,6.225,4.548h4.811c-0.939-5.244-5.521-9.226-11.035-9.226 c-5.514,0-10.095,3.981-11.033,9.226h4.81C141.576,21.026,144.047,19.113,146.957,19.113"/>
          <path fill="#8DC54C" d="M153.182,23.661h-12.448c-0.202,0.627-0.312,1.296-0.312,1.987c0,0.667,0.102,1.307,0.285,1.91h7.828 h4.672c0.188-0.604,0.287-1.243,0.287-1.91C153.494,24.957,153.382,24.288,153.182,23.661"/>
          <path fill="#4F9A44" d="M153.494,25.648c0,0.664-0.1,1.307-0.287,1.91h4.799c0.107-0.621,0.165-1.259,0.165-1.91 c0-0.679-0.064-1.343-0.181-1.987h-4.809C153.382,24.288,153.494,24.957,153.494,25.648"/>
          <path fill="#4F9A44" d="M140.422,25.648c0-0.691,0.112-1.36,0.312-1.987h-4.81c-0.116,0.645-0.181,1.309-0.181,1.987 c0,0.651,0.06,1.289,0.166,1.91h4.797C140.523,26.955,140.422,26.313,140.422,25.648"/>
        </g>
        <g>
          <path fill="#8DC54C" d="M175.924,26.268c-0.956-1.129-2.438-1.932-4.404-2.387l-3.998-0.949c-2.381-0.549-2.381-1.623-2.381-1.975 c0-0.657,0.317-1.17,0.97-1.566c0.705-0.428,1.594-0.645,2.643-0.645c2.184,0,3.578,0.799,4.261,2.439l0.145,0.354l3.999-1.649 l-0.142-0.351c-0.635-1.583-1.701-2.818-3.17-3.666c-1.454-0.843-3.125-1.268-4.97-1.268c-2.239,0-4.204,0.584-5.84,1.737 c-1.68,1.182-2.53,2.748-2.53,4.655c0,1.68,0.629,3.033,1.875,4.025c1.189,0.949,2.472,1.604,3.813,1.947l4.071,0.985 c1.665,0.423,2.473,1.178,2.473,2.307c0,0.725-0.315,1.296-0.968,1.745c-0.685,0.473-1.59,0.716-2.686,0.716 c-2.435,0-4.11-1.165-5.123-3.557l-0.15-0.35l-4.08,1.692l0.148,0.354c0.709,1.704,1.838,3.143,3.356,4.275 c1.529,1.146,3.484,1.724,5.81,1.724c2.411,0,4.42-0.636,5.965-1.897c1.569-1.277,2.364-2.901,2.364-4.826 C177.374,28.707,176.884,27.404,175.924,26.268"/>
        </g>
        <g>
          <path fill="#8DC54C" d="M195.321,35.352v1.51H200v-9.947C200,30.473,198.129,33.592,195.321,35.352"/>
          <path fill="#8DC54C" d="M190.05,32.186c-2.91,0-5.271-2.361-5.271-5.271V14.438h-4.679v12.477c0,5.495,4.457,9.948,9.949,9.948 c1.937,0,3.743-0.556,5.271-1.511v-8.438C195.321,29.824,192.961,32.186,190.05,32.186"/>
          <path fill="#4F9A44" d="M195.321,14.436v12.479v8.438c2.808-1.76,4.679-4.88,4.679-8.438V14.436H195.321z"/>
        </g>
      </g>
    </g>
  </g>
</svg>